<?xml version="1.0" encoding="utf-8"?>
<!-- Generator: Adobe Illustrator 27.0.1, SVG Export Plug-In . SVG Version: 6.00 Build 0)  -->
<svg version="1.1" id="Layer_1" xmlns:serif="http://www.serif.com/"
	 xmlns="http://www.w3.org/2000/svg" xmlns:xlink="http://www.w3.org/1999/xlink" x="0px" y="0px" viewBox="0 0 32 32"
	 style="enable-background:new 0 0 32 32;" xml:space="preserve">
<style type="text/css">
	.st0{fill-rule:evenodd;clip-rule:evenodd;}
</style>
<g transform="matrix(1,0,0,1,-74,-148)">
	<path class="st0" d="M90,162c-4.4,0-8,3.6-8,8s3.6,8,8,8s8-3.6,8-8S94.4,162,90,162z M91,166.7c-0.1-0.4-0.5-0.7-1-0.7
		s-0.8,0.3-1,0.7l-0.4,1.4h-1.5c-0.4,0-0.8,0.3-1,0.7c-0.1,0.4,0,0.9,0.4,1.1l1.2,0.9l-0.4,1.4c-0.1,0.4,0,0.9,0.4,1.1
		c0.3,0.3,0.8,0.3,1.2,0l1.2-0.9l1.2,0.9c0.3,0.3,0.8,0.3,1.2,0c0.4-0.3,0.5-0.7,0.4-1.1l-0.4-1.4l1.2-0.9c0.3-0.3,0.5-0.7,0.4-1.1
		c-0.1-0.4-0.5-0.7-1-0.7h-1.5L91,166.7z M100.7,152c0,0.1-0.1,0.1-0.1,0.2l-7.1,9.5c1.8,0.8,3.3,2.1,4.3,3.8l6-6.8
		c0.3-0.3,0.3-0.8,0.1-1.2L100.7,152z M80.2,151.8l-4,5.6c-0.3,0.4-0.2,0.9,0.1,1.2l6,6.8c1-1.7,2.6-3.1,4.5-3.8l-6.3-9.5
		C80.3,152,80.2,151.9,80.2,151.8z M84.8,157h11l4.1-5.4c0.2-0.3,0.3-0.7,0.1-1c-0.2-0.3-0.5-0.6-0.9-0.6H82c-0.4,0-0.7,0.2-0.9,0.5
		c-0.2,0.3-0.2,0.7,0.1,1L84.8,157z"/>
</g>
</svg>
