<?xml version="1.0" encoding="utf-8"?>
<!-- Generator: Adobe Illustrator 27.0.1, SVG Export Plug-In . SVG Version: 6.00 Build 0)  -->
<svg version="1.1" id="Layer_1" xmlns="http://www.w3.org/2000/svg" xmlns:xlink="http://www.w3.org/1999/xlink" x="0px" y="0px"
	 viewBox="0 0 100 75.5" style="enable-background:new 0 0 100 75.5;" xml:space="preserve">
<style type="text/css">
	.st0{fill:none;}
</style>
<g>
	<polygon class="st0" points="44.4,25.7 40.4,27.3 37,33.5 40.1,33.5 	"/>
	<polygon class="st0" points="55.8,28.4 61.2,18.7 57.2,20.4 51.8,30.1 	"/>
	<polygon class="st0" points="43.5,33.5 47.4,31.9 52.8,22.2 48.8,23.9 43.4,33.5 	"/>
	<polyline class="st0" points="35.9,35.4 36.8,36.3 37,36.2 39.9,33.8 39.9,33.8 36.8,33.8 	"/>
	<polygon class="st0" points="64.2,24.9 69.6,15.2 65.5,16.9 60.1,26.6 	"/>
	<polygon class="st0" points="36,29.1 31.5,31 33.7,33.3 	"/>
	<polygon class="st0" points="72.6,21.5 75.3,16.6 74,13.4 73.9,13.4 68.5,23.1 	"/>
	<polygon class="st0" points="71.2,40.7 75.4,40.7 79.6,37.2 79.6,33.8 79.6,33.8 	"/>
	<polygon class="st0" points="70.8,33.8 62.4,40.7 66.6,40.7 75,33.8 	"/>
	<circle class="st0" cx="25.3" cy="35.9" r="2"/>
	<polygon class="st0" points="62,33.8 53.6,40.7 57.8,40.7 66.3,33.8 	"/>
	<polygon class="st0" points="53.2,33.8 44.8,40.7 49.1,40.7 57.5,33.8 	"/>
	<polygon class="st0" points="44.5,33.8 38.9,38.3 40.8,40.2 48.7,33.8 	"/>
	<path d="M44.3,33.5L77,19.9l-0.1-0.3l-1.4-3.4L74.1,13L31.2,30.8H19.1V41h22.5l0,0h38.3v-0.3V37v-3.5H44.3z M74,13.4l1.3,3.2
		l-2.7,4.9l-4,1.7L74,13.4L74,13.4z M69.6,15.2l-5.4,9.7l-4,1.7l5.4-9.7L69.6,15.2z M61.2,18.7l-5.4,9.7l-4,1.7l5.4-9.7L61.2,18.7z
		 M52.8,22.2l-5.4,9.7l-3.9,1.6h-0.1l5.4-9.6L52.8,22.2z M40.4,27.3l4-1.7L40,33.4h-3L40.4,27.3z M39.9,33.8L39.9,33.8L37,36.2
		l-0.2,0.1l-0.9-0.9l-1.8-1.6H39.9z M36,29.1l-2.3,4.1L31.5,31L36,29.1z M25.3,37.9c-1.1,0-2-0.9-2-2s0.9-2,2-2s2,0.9,2,2
		S26.3,37.9,25.3,37.9z M40.8,40.2l-1.9-1.9l5.6-4.5h4.2L40.8,40.2z M44.8,40.7l8.4-6.9h4.2L49,40.7H44.8z M53.6,40.7l8.4-6.9h4.2
		l-8.4,6.9H53.6z M62.4,40.7l8.4-6.9H75l-8.4,6.9H62.4z M79.6,37.2l-4.2,3.4h-4.2l8.4-6.9l0,0C79.6,33.7,79.6,37.2,79.6,37.2z"/>
</g>
<rect x="19.1" y="42" width="60.8" height="29.9"/>
</svg>
