<?xml version="1.0" encoding="utf-8"?>
<!-- Generator: Adobe Illustrator 27.0.1, SVG Export Plug-In . SVG Version: 6.00 Build 0)  -->
<svg version="1.1" xmlns="http://www.w3.org/2000/svg" xmlns:xlink="http://www.w3.org/1999/xlink" x="0px" y="0px"
	 viewBox="0 0 100 62.1" style="enable-background:new 0 0 100 62.1;" xml:space="preserve">
<g id="Layer_2">
</g>
<g id="Layer_1">
	<g>
		<path d="M5273.1,2381.5v-2c0-2.8-5-4-9.7-4s-9.7,1.3-9.7,4v2c0,1.8,0.7,3.6,2,4.9l5,4.9c0.3,0.3,0.4,0.6,0.4,1v6.4
			c0,0.4,0.2,0.7,0.6,0.8l2.9,0.9c0.5,0.1,1-0.2,1-0.8v-7.2c0-0.4,0.2-0.7,0.4-1l5.1-5C5272.4,2385.1,5273.1,2383.3,5273.1,2381.5z
			 M5263.4,2381.4c-4.8,0-7.4-1.3-7.5-1.8l0,0c0.1-0.5,2.7-1.8,7.5-1.8s7.3,1.3,7.5,1.8C5270.7,2380.1,5268.2,2381.4,5263.4,2381.4z
			"/>
		<path d="M5268.4,2391.7c-0.6,0-1,0.4-1,1s0.4,1,1,1h4.3c0.6,0,1-0.4,1-1s-0.4-1-1-1H5268.4z"/>
		<path d="M5272.7,2395.1h-4.3c-0.6,0-1,0.4-1,1s0.4,1,1,1h4.3c0.6,0,1-0.4,1-1C5273.7,2395.5,5273.3,2395.1,5272.7,2395.1z"/>
		<path d="M5272.7,2398.4h-4.3c-0.6,0-1,0.4-1,1s0.4,1,1,1h4.3c0.6,0,1-0.4,1-1C5273.7,2398.9,5273.3,2398.4,5272.7,2398.4z"/>
	</g>
	<g>
		<path d="M88.9,42.7h-5.4l-0.9-3.5c0.7-0.5,1.3-1,1.8-1.5c1.8,0.1,3.5,0.3,4.9,0.6c1.6,0.2,3-1,2.9-2.6c-0.1-2-0.3-4.7-0.5-7.7
			c1-0.8,1.5-2.2,1.5-4c0-2.1-0.5-3.6-1.5-4.5c-0.2-0.2-0.5-0.3-0.8-0.5C89.5,5.8,80.5,4.4,75.3,4.4C70,4.4,61,5.8,59.5,19
			c-0.3,0.2-0.6,0.3-0.8,0.5c-1,0.9-1.5,2.4-1.5,4.5c0,1.9,0.5,3.2,1.5,4.1c-0.2,3-0.4,5.7-0.5,7.7c-0.1,1.6,1.3,2.8,2.9,2.6
			c1.4-0.2,3.1-0.4,4.9-0.6c0.6,0.5,1.2,1,1.8,1.4L67,42.7h-5.4c-4.8,0-8.6,3.9-8.6,8.6v5.4c0,1.2,1,2.3,2.3,2.3h40
			c1.2,0,2.3-1,2.3-2.3v-5.4C97.5,46.6,93.6,42.7,88.9,42.7z M63.1,27.9c-0.1-0.8-0.7-1.5-1.5-1.5c-1-0.1-1.7-0.2-1.7-2.4
			c0-1.7,0.4-2.4,0.6-2.6c0,0,0.1-0.1,0.3-0.2c0.1,0.5,0.5,0.9,1.1,1c0.7,0.1,1.4-0.4,1.5-1.1c0.5-3.1,1.2-5.5,2.1-7.2l0.7,3.2
			c0.1,0.5,0.6,0.9,1.1,0.9h15.6c0.5,0,1-0.4,1.1-0.9l0.7-3.2c1,1.7,1.6,4.1,2.1,7.2c0.1,0.6,0.7,1.1,1.3,1.1c0.1,0,0.2,0,0.2,0
			c0.5-0.1,1-0.5,1.1-1c0.1,0.1,0.2,0.1,0.3,0.2c0.2,0.2,0.6,0.8,0.6,2.6c0,2.2-0.7,2.3-1.7,2.4c-0.8,0.1-1.5,0.7-1.5,1.5
			c-0.1,3.4-2.2,6.5-6.1,9.2c-3.4,2.4-8.2,2.4-11.6,0C65.6,34.4,63.5,31.3,63.1,27.9z M80.2,46.4L76.7,49c-0.8,0.6-2,0.6-2.9,0
			l-3.5-2.6c-0.8-0.6-1.1-1.6-0.9-2.5l0.9-3.3c1.6,0.7,3.2,1,4.9,1c1.7,0,3.4-0.4,4.9-1l0.9,3.3C81.3,44.8,81,45.8,80.2,46.4z"/>
		<circle cx="70.3" cy="23.5" r="2.4"/>
		<circle cx="80.1" cy="23.5" r="2.4"/>
		<path d="M80.2,29h-9.9c-0.5,0-0.9,0.5-0.8,1c0.6,2.6,2.9,4.6,5.8,4.6c2.8,0,5.2-2,5.8-4.6C81.1,29.5,80.7,29,80.2,29z"/>
		<path d="M38.1,42.4h-4.7l-0.7-2.7c5.7-1.4,6.4-5,7-10.8c0-0.3,0.1-0.7,0.1-1c1.3-0.2,3.4-1.1,3.4-4.5c0-2.6-1.2-4.2-3.5-4.5
			c0-1.4,0-3-0.2-4.8c-0.5-6.7-4.3-8.4-9.6-8.8c-0.1,0-0.1,0-0.2,0c-4.7-0.4-13.5,0-17.3-1.4c-0.8-0.3-1.6,0.3-1.1,1.2
			c0.3,0.6,0.5,1.2,0.6,1.8c-0.2-0.1-0.4-0.2-0.7-0.2c-0.5-0.1-0.9,0.3-0.8,0.8c0.6,2.1,0.2,9,0,11.5C8.2,19.4,7,21,7,23.5
			c0,3.4,2,4.3,3.4,4.5c0,0.3,0.1,0.7,0.1,1c0.6,5.8,1.3,9.4,7,10.8l-0.6,2.6h-4.7c-5.4,0-9.7,4.4-9.7,9.7v4.6c0,1.2,1,2.3,2.2,2.3
			h40.9c1.2,0,2.3-1,2.3-2.3v-4.6C47.9,46.8,43.5,42.4,38.1,42.4z M13.3,28.7c-0.1-0.6-0.1-1.2-0.2-1.8c-0.1-0.8-0.7-1.4-1.5-1.5
			c-1.2-0.1-1.7-0.3-1.7-2s0.6-2,1.9-2c0.4,0,0.5,0.1,0.6,0.4c0.2,0.7,1,1.1,1.7,0.8c0.7-0.2,1.1-1,0.8-1.7
			c-0.2-0.6-0.6-1.1-1.1-1.5c0.3-2.1,0.5-3.9,1-5.3c1.8,1.1,5,1.9,10.4,1.9c5.5,0,8.7-0.8,10.5-1.9c0.5,1.5,0.8,3.3,1,5.3
			c-0.5,0.4-0.9,0.9-1.1,1.5c-0.2,0.7,0.1,1.5,0.8,1.7s1.5-0.1,1.7-0.8c0.1-0.3,0.2-0.4,0.6-0.4c1.3,0,1.9,0.3,1.9,2s-0.5,1.9-1.7,2
			c-0.8,0.1-1.4,0.7-1.5,1.5c-0.1,0.6-0.1,1.2-0.2,1.8c-0.7,6.8-1,9.1-11.9,9.1C14.2,37.8,14,35.5,13.3,28.7z M30.8,45.3
			c-3.5,1.9-7.8,1.9-11.3,0c-0.3-0.2-0.5-0.5-0.4-0.9l1.1-4.2c1.4,0.2,3,0.3,4.9,0.3s3.5-0.1,4.9-0.3l1.1,4.2
			C31.3,44.8,31.2,45.1,30.8,45.3z"/>
		<circle cx="20.3" cy="22.8" r="2.4"/>
		<circle cx="30.1" cy="22.8" r="2.4"/>
		<path d="M30.9,29.1c0.1-0.5-0.3-1-0.8-1h-9.9c-0.5,0-0.9,0.5-0.8,1c0.6,2.6,2.9,4.6,5.8,4.6C28,33.7,30.4,31.7,30.9,29.1z"/>
	</g>
</g>
</svg>
