<?xml version="1.0" encoding="utf-8"?>
<!-- Generator: Adobe Illustrator 27.0.1, SVG Export Plug-In . SVG Version: 6.00 Build 0)  -->
<svg version="1.1" id="Layer_1" xmlns="http://www.w3.org/2000/svg" xmlns:xlink="http://www.w3.org/1999/xlink" x="0px" y="0px"
	 viewBox="0 0 64 64" style="enable-background:new 0 0 64 64;" xml:space="preserve">
<path d="M2,1v11c0,19,19,32,19,32s1.2-0.8,3-2.4c-1-2.7-1.7-5.7-1.9-8.8C21.7,32.9,21.4,33,21,33c-4,0-6-5-6-5
	c1.9,1.5,4.5,2.2,7,1.9V16.3l2.9,1.5c4.1,2.2,8.7,3.6,13.3,4.2c1.1-3.1,1.7-6.4,1.7-10V1C28.1,7.3,13.9,7.3,2,1z M17.3,15.7
	c-2.4-2.3-6.2-2.3-8.6,0l-1.4-1.4c3.1-3,8.2-3,11.4,0L17.3,15.7z M33.3,15.7c-2.4-2.3-6.2-2.3-8.6,0l-1.4-1.4c3.1-3,8.2-3,11.4,0
	L33.3,15.7z"/>
<path d="M24,19.6v11c0,19,19,32,19,32s19-13,19-32v-11C50.1,25.8,35.9,25.8,24,19.6z M30.7,35.3l-1.4-1.4c3.1-3,8.2-3,11.4,0
	l-1.4,1.4C36.9,33,33.1,33,30.7,35.3z M43,52.6c-4,0-6-5-6-5c3.3,2.7,8.7,2.7,12,0C49,47.6,47,52.6,43,52.6z M55.3,35.3
	c-2.4-2.3-6.2-2.3-8.6,0l-1.4-1.4c3.1-3,8.2-3,11.4,0L55.3,35.3z"/>
</svg>
