<?xml version="1.0" encoding="utf-8"?>
<!-- Generator: Adobe Illustrator 27.0.1, SVG Export Plug-In . SVG Version: 6.00 Build 0)  -->
<svg version="1.1" id="Layer_1" xmlns="http://www.w3.org/2000/svg" xmlns:xlink="http://www.w3.org/1999/xlink" x="0px" y="0px"
	 viewBox="0 0 50.4 51.8" style="enable-background:new 0 0 50.4 51.8;" xml:space="preserve">
<g>
	<path d="M13.3,7.5c-1,0-1.8,0.8-1.8,1.8c0,1,0.8,1.8,1.8,1.8c1,0,1.8-0.8,1.8-1.8C15.1,8.3,14.3,7.5,13.3,7.5z"/>
	<rect x="7.6" y="8.1" width="1.3" height="7.3"/>
	<path d="M19,15.4c-0.5-1.3-1.9-3.8-4.9-3.7c-1.8,0.1-2.1,2.5-2.1,3.7H19z"/>
	<path d="M37.8,7.5c-1,0-1.8,0.8-1.8,1.8c0,1,0.8,1.8,1.8,1.8c1,0,1.8-0.8,1.8-1.8C39.6,8.3,38.8,7.5,37.8,7.5z"/>
	<rect x="32.1" y="8.1" width="1.3" height="7.3"/>
	<path d="M43.5,15.4c-0.5-1.3-1.9-3.8-4.9-3.7c-1.8,0.1-2.1,2.5-2.1,3.7H43.5z"/>
	<path d="M37.8,30.8c-1,0-1.8,0.8-1.8,1.8c0,1,0.8,1.8,1.8,1.8c1,0,1.8-0.8,1.8-1.8S38.8,30.8,37.8,30.8z"/>
	<g>
		<polygon points="49.3,3.1 49.3,0.1 0.6,0.1 0.6,3.1 23.3,3.1 23.3,24 20.7,24 20.7,16.3 4.7,16.3 4.7,24 0.6,24 0.6,27.1 
			23.3,27.1 23.3,47.4 20.7,47.4 20.7,39.6 4.7,39.6 4.7,47.4 0.6,47.4 0.6,50.4 49.3,50.4 49.3,47.4 45.2,47.4 45.2,39.6 
			29.2,39.6 29.2,47.4 26.4,47.4 26.4,27.1 49.3,27.1 49.3,24 45.2,24 45.2,16.3 29.2,16.3 29.2,24 26.4,24 26.4,3.1 		"/>
		<path d="M13.3,30.8c-1,0-1.8,0.8-1.8,1.8c0,1,0.8,1.8,1.8,1.8c1,0,1.8-0.8,1.8-1.8C15.1,31.6,14.3,30.8,13.3,30.8z"/>
		<rect x="7.6" y="31.4" width="1.3" height="7.3"/>
		<path d="M12,38.7h7c-0.5-1.3-1.9-3.8-4.9-3.7C12.4,35.2,12.1,37.6,12,38.7z"/>
		<rect x="32.1" y="31.4" width="1.3" height="7.3"/>
		<path d="M36.5,38.7h7c-0.5-1.3-1.9-3.8-4.9-3.7C36.9,35.2,36.6,37.6,36.5,38.7z"/>
	</g>
</g>
</svg>
