<?xml version="1.0" encoding="utf-8"?>
<!-- Generator: Adobe Illustrator 27.0.1, SVG Export Plug-In . SVG Version: 6.00 Build 0)  -->
<svg version="1.1" id="Layer_1" xmlns="http://www.w3.org/2000/svg" xmlns:xlink="http://www.w3.org/1999/xlink" x="0px" y="0px"
	 viewBox="0 0 100 88.8" style="enable-background:new 0 0 100 88.8;" xml:space="preserve">
<style type="text/css">
	.st0{stroke:#1A171B;stroke-width:0.1899;}
	.st1{stroke:#1A171B;stroke-width:0.3907;}
</style>
<path class="st0" d="M25.4,18.5c2.9-3,5-2,6-1.4c0.5,0.3,1.1,0.6,1.7,1l0.3,0.3c1,0.9,12.2,13.6,12.2,13.6l13.6,1.6
	c3,0.3,4,0.5,4.1,2.6c0.1,2.4-1.9,2.7-3.5,3c-1.6,0.2-10-0.2-13.6-0.4c-2.3,0-2.6,0.1-3.8-0.5C41.7,38,33,29.8,33,29.8
	S28,46,29,46.2c1,0.1,15.3,1.5,17.5,5c1.9,2.1,5,14.6,5,14.6L55.2,81c0.4,1.9,0.2,4.6-2.1,4.7c-1.9,0-3.6-1.5-4.6-4.6
	c0,0-8.3-23.6-8.3-23.6c0,0-20.8,1.9-25-2.3c-3.5-7.4,2.5-21.3,2.5-21.3L25.4,18.5z"/>
<path class="st0" d="M42.4,8.9L42.4,8.9c0,4-3.3,7.3-7.3,7.3c-4,0-7.3-3.3-7.3-7.3c0-4.1,3.3-7.3,7.3-7.3
	C39.1,1.6,42.4,4.9,42.4,8.9L42.4,8.9z"/>
<path class="st1" d="M37.3,58.9c0,0-18.8-0.2-25.2-2.2c-2.1-0.8-3,2.6-3,3.2v1.6c0,0.6,0.5,1,1,1h11.6l0,0.4
	c-0.5,0.3-1.1,0.5-1.8,0.5h-9.3c-1.8,0-3.3-1.5-3.3-3.3V47.3c0-1.1,0.5-2,1.4-2.6l0.3,8c0,0.5,0.5,1,1,0.9l1.5-0.1
	c0.5,0,1-0.5,0.9-1l-0.7-19.1c0-0.5-0.5-1-1-0.9l-1.5,0.1c-0.5,0-1,0.5-0.9,1l0.3,8.9c-1.9,0.8-3.2,2.6-3.2,4.8v12.8
	c0,2.9,2.3,5.2,5.2,5.2H20c0.7,0,1.3-0.1,1.9-0.3l0.5,10.4h0.8v1l-10.9,7.1c-0.2,0.2-0.4,0.4-0.4,0.7c-0.2,0.2-0.3,0.5-0.3,0.8
	c0,0.8,0.6,1.4,1.4,1.4c0.8,0,1.4-0.6,1.4-1.4c0-0.1,0-0.3-0.1-0.4l8.2-5.3l-1.4,5.6c-0.4,0.3-0.7,0.7-0.7,1.2
	c0,0.8,0.6,1.4,1.4,1.4s1.4-0.6,1.4-1.4c0-0.3-0.1-0.5-0.2-0.7l1.7-6.8l9.2,6c0,0.1-0.1,0.3-0.1,0.4c0,0.8,0.6,1.4,1.4,1.4
	c0.8,0,1.4-0.6,1.4-1.4c0-0.3-0.1-0.6-0.3-0.9c-0.1-0.3-0.2-0.5-0.4-0.7l-10.9-7.1v-1h0.8l0.6-12.8h10.7c0.6,0,1-0.5,1-1v-1.6
	C38.3,59.3,37.9,58.9,37.3,58.9z"/>
<rect x="41.5" y="40.4" width="53.1" height="1.3"/>
<polygon points="94.6,42.5 41.5,42.5 41.5,45.7 87,45.7 87,56.3 77.8,62.8 51.2,45.7 45.3,45.7 74.9,64.8 44.9,86.1 50.5,86.1 
	87,60.2 87,86.1 90.3,86.1 90.3,45.7 94.6,45.7 "/>
<path d="M74.5,36l-1.9-10.4c-0.6-2.8-2.1-3.7-3.5-3.9l2-15.8c0.1-0.5-0.3-0.9-0.8-1l-1.2-0.1c-0.5-0.1-0.9,0.3-1,0.8l-3.9,31
	c-0.1,0.5,0.3,0.9,0.8,1l1.2,0.2c0,0,0.1,0,0.1,0c0.4,0,0.8-0.3,0.9-0.8l1.7-13.9c0.8,0.1,1.8,0.7,2.3,2.9l1.9,10.3
	c0.2,0.9,0.1,1.6-0.2,1.9c-0.3,0.4-1.1,0.6-2.4,0.6c0,0,0,0,0,0h-5.2v1.4h5.2c0,0,0,0,0,0c1.2,0,2.6-0.1,3.4-1.1
	C74.6,38.4,74.7,37.4,74.5,36z M66.2,36.6l-0.9-0.1l3.8-30.7L70,5.9L66.2,36.6z"/>
</svg>
